<?xml version="1.0" encoding="utf-8"?>
<!-- Generator: Adobe Illustrator 19.0.0, SVG Export Plug-In . SVG Version: 6.00 Build 0)  -->
<svg version="1.1" id="Layer_1" xmlns="http://www.w3.org/2000/svg" xmlns:xlink="http://www.w3.org/1999/xlink" x="0px" y="0px"
	 viewBox="0 0 61.7 1077" style="enable-background:new 0 0 61.7 1077;" xml:space="preserve">
<style type="text/css">
	.st0{fill:url(#XMLID_73_);stroke:#706F6F;stroke-miterlimit:10;}
	.st1{fill:url(#XMLID_74_);stroke:#706F6F;stroke-miterlimit:10;}
	.st2{fill:url(#XMLID_75_);stroke:#706F6F;stroke-miterlimit:10;}
	.st3{fill:url(#XMLID_76_);stroke:#706F6F;stroke-miterlimit:10;}
	.st4{fill:url(#XMLID_77_);stroke:#706F6F;stroke-miterlimit:10;}
	.st5{fill:url(#XMLID_78_);stroke:#706F6F;stroke-miterlimit:10;}
</style>
<linearGradient id="XMLID_73_" gradientUnits="userSpaceOnUse" x1="1" y1="537.6135" x2="60.9953" y2="537.6135">
	<stop  offset="0" style="stop-color:#F7F7F7"/>
	<stop  offset="0" style="stop-color:#F9F9F8"/>
	<stop  offset="0" style="stop-color:#FDFDFD"/>
	<stop  offset="0" style="stop-color:#FFFFFF"/>
	<stop  offset="0.5149" style="stop-color:#FEFEFE"/>
	<stop  offset="0.7003" style="stop-color:#F9F9F9"/>
	<stop  offset="0.8325" style="stop-color:#F0F0F0"/>
	<stop  offset="0.9387" style="stop-color:#E4E4E4"/>
	<stop  offset="1" style="stop-color:#DADADA"/>
</linearGradient>
<path id="XMLID_1_" class="st0" d="M29.9,1061c-9.6,0.1-19.3,0.1-28.9,0.2V14l30.5,0.5C48,14.8,61.1,28.3,61,44.8
	c-2.5,308.5-3.3,442.3-3.6,503.5c-0.3,71.3-0.2,141.3-0.2,141.3c0,31.2,0.1,65.8,0.3,103.5c0.5,96.1,1.4,177.6,2.2,237.6
	C59.9,1047.3,46.5,1060.9,29.9,1061z"/>
<linearGradient id="XMLID_74_" gradientUnits="userSpaceOnUse" x1="0.5" y1="537.8148" x2="57.8118" y2="537.8148">
	<stop  offset="0" style="stop-color:#F7F7F7"/>
	<stop  offset="0" style="stop-color:#F9F9F8"/>
	<stop  offset="0" style="stop-color:#FDFDFD"/>
	<stop  offset="0" style="stop-color:#FFFFFF"/>
	<stop  offset="0.5149" style="stop-color:#FEFEFE"/>
	<stop  offset="0.7003" style="stop-color:#F9F9F9"/>
	<stop  offset="0.8325" style="stop-color:#F0F0F0"/>
	<stop  offset="0.9387" style="stop-color:#E4E4E4"/>
	<stop  offset="1" style="stop-color:#DADADA"/>
</linearGradient>
<path id="XMLID_2_" class="st1" d="M24.8,1063.2l-24.3,0.1V12.4c9.1,0,18.1-0.1,27.2-0.1C44.5,12.2,58.1,26,57.8,42.8
	c-1.1,71.8-2.1,143.5-2.8,215.3c-2.7,258.3-2.8,516.5-0.3,774.9C54.8,1049.5,41.4,1063.1,24.8,1063.2z"/>
<linearGradient id="XMLID_75_" gradientUnits="userSpaceOnUse" x1="0.5" y1="537.0851" x2="54.1175" y2="537.0851">
	<stop  offset="0" style="stop-color:#F7F7F7"/>
	<stop  offset="0" style="stop-color:#F9F9F8"/>
	<stop  offset="0" style="stop-color:#FDFDFD"/>
	<stop  offset="0" style="stop-color:#FFFFFF"/>
	<stop  offset="0.5149" style="stop-color:#FEFEFE"/>
	<stop  offset="0.7003" style="stop-color:#F9F9F9"/>
	<stop  offset="0.8325" style="stop-color:#F0F0F0"/>
	<stop  offset="0.9387" style="stop-color:#E4E4E4"/>
	<stop  offset="1" style="stop-color:#DADADA"/>
</linearGradient>
<path id="XMLID_3_" class="st2" d="M24,1066.8H0.5V7.4c7.9,0,15.7,0,23.6,0c16.6,0,30,13.4,30,30C54,183.3,54,329.3,54,475.2
	c0,187.2,0,374.4,0,561.6C54,1053.4,40.6,1066.8,24,1066.8z"/>
<linearGradient id="XMLID_76_" gradientUnits="userSpaceOnUse" x1="0.5" y1="538.3192" x2="51.3586" y2="538.3192">
	<stop  offset="0" style="stop-color:#F7F7F7"/>
	<stop  offset="0" style="stop-color:#F9F9F8"/>
	<stop  offset="0" style="stop-color:#FDFDFD"/>
	<stop  offset="0" style="stop-color:#FFFFFF"/>
	<stop  offset="0.5149" style="stop-color:#FEFEFE"/>
	<stop  offset="0.7003" style="stop-color:#F9F9F9"/>
	<stop  offset="0.8325" style="stop-color:#F0F0F0"/>
	<stop  offset="0.9387" style="stop-color:#E4E4E4"/>
	<stop  offset="1" style="stop-color:#DADADA"/>
</linearGradient>
<path id="XMLID_4_" class="st3" d="M21.4,1071.5H0.5V5.2l19.8,0c16.5,0,29.9,13.4,30,30l1.2,1006.2
	C51.4,1058,37.9,1071.5,21.4,1071.5z"/>
<linearGradient id="XMLID_77_" gradientUnits="userSpaceOnUse" x1="2.5" y1="538.0824" x2="48.1578" y2="538.0824">
	<stop  offset="0" style="stop-color:#F7F7F7"/>
	<stop  offset="0" style="stop-color:#F9F9F8"/>
	<stop  offset="0" style="stop-color:#FDFDFD"/>
	<stop  offset="0" style="stop-color:#FFFFFF"/>
	<stop  offset="0.5149" style="stop-color:#FEFEFE"/>
	<stop  offset="0.7003" style="stop-color:#F9F9F9"/>
	<stop  offset="0.8325" style="stop-color:#F0F0F0"/>
	<stop  offset="0.9387" style="stop-color:#E4E4E4"/>
	<stop  offset="1" style="stop-color:#DADADA"/>
</linearGradient>
<path id="XMLID_5_" class="st4" d="M18.2,1074.2H2.5V2h15.7c16.6,0,30,13.4,30,30v1012.2C48.2,1060.7,34.7,1074.2,18.2,1074.2z"/>
<linearGradient id="XMLID_78_" gradientUnits="userSpaceOnUse" x1="1" y1="538.4931" x2="44.9215" y2="538.4931">
	<stop  offset="0" style="stop-color:#F7F7F7"/>
	<stop  offset="0" style="stop-color:#F9F9F8"/>
	<stop  offset="0" style="stop-color:#FDFDFD"/>
	<stop  offset="0" style="stop-color:#FFFFFF"/>
	<stop  offset="0.5149" style="stop-color:#FEFEFE"/>
	<stop  offset="0.7003" style="stop-color:#F9F9F9"/>
	<stop  offset="0.8325" style="stop-color:#F0F0F0"/>
	<stop  offset="0.9387" style="stop-color:#E4E4E4"/>
	<stop  offset="1" style="stop-color:#DADADA"/>
</linearGradient>
<path id="XMLID_7_" class="st5" d="M14.9,1076.5H1V0.5h13.9c16.6,0,30,13.4,30,30v1016C44.9,1063.1,31.5,1076.5,14.9,1076.5z"/>
</svg>
