<?xml version="1.0" encoding="UTF-8"?>
<svg xmlns="http://www.w3.org/2000/svg" viewBox="0 0 24 24" width="24px" height="24px" style="color: blue;" fill="currentColor">    <path d="M 10.294922 3.9882812 C 10.122922 3.9882812 9.9476875 4.0533125 9.8046875 4.1953125 L 5 9 L 3 9 C 1.895 9 1 9.895 1 11 L 1 13 C 1 14.105 1.895 15 3 15 L 5 15 L 9.8046875 19.804688 C 9.9476875 19.947688 10.122922 20.011719 10.294922 20.011719 C 10.654922 20.011719 11 19.732547 11 19.310547 L 11 4.6894531 C 11 4.2674531 10.654922 3.9882812 10.294922 3.9882812 z M 13.111328 8.8691406 A 1.0001 1.0001 0 0 0 12.414062 10.585938 C 13.204152 11.376027 13.204152 12.623974 12.414062 13.414062 A 1.0005843 1.0005843 0 1 0 13.828125 14.830078 C 15.382035 13.276168 15.382035 10.725785 13.828125 9.171875 A 1.0001 1.0001 0 0 0 13.111328 8.8691406 z"/></svg>